# xmcd
#
# Track frame offsets:
#	150
#	11436
#	20278
#	29931
#	44166
#	56381
#	66609
#	78288
#	90301
#	101037
#
# Disc length: 1486 seconds
#
# Revision: 0
# Processed by: cddbd v1.5.1PL2 Copyright (c) Steve Scherf et al.
# Submitted via: EasyCDDAExtractor 8.0.1.1
#
DISCID=8005cc0a
DTITLE=Willie Nelson - Irish Star - His Greatest Hits
DYEAR=2006
DGENRE=Country
TTITLE0=The Ghost
TTITLE1=Both Ends Of The Candle
TTITLE2=Is There Something On Your Mind
TTITLE3=Building Heartaches
TTITLE4=Everything But You
TTITLE5=Half A Man
TTITLE6=Thing To Remember
TTITLE7=Home Is Where You're Happy
TTITLE8=I Can't Find The Time
TTITLE9=I Didn't Sleep A Wink
EXTD=
EXTT0=
EXTT1=
EXTT2=
EXTT3=
EXTT4=
EXTT5=
EXTT6=
EXTT7=
EXTT8=
EXTT9=
PLAYORDER=
